<?xml version="1.0"?>
<svg xmlns="http://www.w3.org/2000/svg" xmlns:xlink="http://www.w3.org/1999/xlink" version="1.1" id="Capa_1" x="0px" y="0px" viewBox="0 0 512.001 512.001" style="enable-background:new 0 0 512.001 512.001;" xml:space="preserve" width="512px" height="512px"><g><g>
	<g>
		<path d="M502.525,382.638L321.61,56.785c-13.398-24.228-37.924-38.693-65.609-38.693c-27.685,0-52.211,14.464-65.596,38.67    L9.478,382.638c-0.004,0.008-0.009,0.015-0.013,0.023c-12.976,23.467-12.589,51.266,1.033,74.362s37.762,36.885,64.576,36.885    H436.93c26.814,0,50.955-13.789,64.575-36.885C515.126,433.926,515.513,406.127,502.525,382.638z M475.675,441.789    c-8.173,13.857-22.657,22.131-38.746,22.131H75.074c-16.089,0-30.573-8.274-38.746-22.131    c-8.173-13.855-8.405-30.534-0.623-44.612L216.636,71.296c8.038-14.537,22.753-23.216,39.365-23.216    c16.612,0,31.328,8.68,39.378,23.239l180.915,325.853C484.08,411.251,483.849,427.931,475.675,441.789z" data-original="#000000" class="active-path" data-old_color="#000000" fill="#FFFFFF"/>
	</g>
</g><g>
	<g>
		<path d="M256.002,343.968c-24.803,0-44.982,20.179-44.982,44.982s20.179,44.982,44.982,44.982    c24.804,0,44.982-20.179,44.982-44.982S280.805,343.968,256.002,343.968z M256.002,403.944c-8.268,0-14.994-6.726-14.994-14.994    s6.726-14.994,14.994-14.994c8.269,0,14.994,6.726,14.994,14.994S264.269,403.944,256.002,403.944z" data-original="#000000" class="active-path" data-old_color="#000000" fill="#FFFFFF"/>
	</g>
</g><g>
	<g>
		<path d="M255.954,104.064c-24.777,0-44.934,20.157-44.934,44.934v120.048c0,24.777,20.157,44.934,45.031,44.934    c24.776,0,44.933-20.157,44.933-44.933V148.998C300.984,124.221,280.827,104.064,255.954,104.064z M270.996,269.047    c0,8.241-6.704,14.946-15.042,14.946c-8.241,0-14.946-6.705-14.946-14.946V148.998c0-8.241,6.705-14.946,15.043-14.946    c8.241,0,14.945,6.705,14.945,14.946V269.047z" data-original="#000000" class="active-path" data-old_color="#000000" fill="#FFFFFF"/>
	</g>
</g></g> </svg>
