<svg width="21" height="21" viewBox="0 0 21 21" fill="none" xmlns="http://www.w3.org/2000/svg">
<path d="M10.4981 0C4.70012 0 0 4.70163 0 10.5004C0 16.2984 4.70012 21 10.4981 21C16.2991 21 21 16.2976 21 10.5004C21 4.70163 16.2991 0 10.4981 0ZM15.0128 13.3434L13.3404 15.0135C13.3404 15.0135 10.6949 12.175 10.4974 12.175C10.3029 12.175 7.65657 15.0135 7.65657 15.0135L5.98348 13.3434C5.98348 13.3434 8.82503 10.7362 8.82503 10.5041C8.82503 10.2683 5.98348 7.66033 5.98348 7.66033L7.65657 5.98648C7.65657 5.98648 10.3247 8.82653 10.4974 8.82653C10.6716 8.82653 13.3404 5.98648 13.3404 5.98648L15.0128 7.66033C15.0128 7.66033 12.1705 10.3059 12.1705 10.5041C12.1705 10.6926 15.0128 13.3434 15.0128 13.3434Z" fill="#8B93B3"/>
</svg>
