<svg width="21" height="21" viewBox="0 0 21 21" fill="none" xmlns="http://www.w3.org/2000/svg">
<path d="M14.7651 7.3664C14.76 8.37846 14.5661 9.34668 14.2167 10.2375H17.6777V11.468H13.607C13.3398 11.9076 13.0313 12.3195 12.6871 12.6984H15.627V13.9289H11.2748C9.9905 14.8082 8.43814 15.3234 6.76758 15.3234C6.58928 15.3234 6.41152 15.3168 6.23438 15.305V16.8H15.1576L17.9238 20.4422L21 16.3919V7.3664H14.7651Z" fill="#8B93B3"/>
<path d="M6.76758 0.557808C3.03594 0.557808 0 3.5937 0 7.32539V15.4797L3.32448 13.1526C4.36505 13.7691 5.54658 14.093 6.76758 14.093C10.4992 14.093 13.5352 11.057 13.5352 7.32539C13.5352 3.59374 10.4992 0.557808 6.76758 0.557808ZM7.38281 10.8117H6.15234V9.58125H7.38281V10.8117ZM7.38281 7.42505V8.35078H6.15234V6.3H6.76758C7.10682 6.3 7.38281 6.024 7.38281 5.68476C7.38281 5.34552 7.10682 5.06953 6.76758 5.06953C6.42834 5.06953 6.15234 5.34552 6.15234 5.68476H4.92188C4.92188 4.66704 5.74986 3.83906 6.76758 3.83906C7.7853 3.83906 8.61328 4.66704 8.61328 5.68476C8.61328 6.48686 8.09899 7.17113 7.38281 7.42505Z" fill="#8B93B3"/>
</svg>
