<svg width="36" height="36" viewBox="0 0 36 36" fill="none" xmlns="http://www.w3.org/2000/svg">
<circle cx="18" cy="18" r="18" fill="#F5F6FA"/>
<path d="M9.2 14.8C7.4356 14.8 6 16.2356 6 18C6 19.7644 7.4356 21.2 9.2 21.2C10.9644 21.2 12.4 19.7644 12.4 18C12.4 16.2356 10.9644 14.8 9.2 14.8Z" fill="#EC6236"/>
<path d="M26.8001 14.8C25.0357 14.8 23.6001 16.2356 23.6001 18C23.6001 19.7644 25.0357 21.2 26.8001 21.2C28.5645 21.2 30.0001 19.7644 30.0001 18C30.0001 16.2356 28.5645 14.8 26.8001 14.8Z" fill="#EC6236"/>
<path d="M17.9998 14.8C16.2354 14.8 14.7998 16.2356 14.7998 18C14.7998 19.7644 16.2354 21.2 17.9998 21.2C19.7642 21.2 21.1998 19.7644 21.1998 18C21.1998 16.2356 19.7642 14.8 17.9998 14.8Z" fill="#EC6236"/>
</svg>
