<svg width="20" height="20" viewBox="0 0 20 20" fill="none" xmlns="http://www.w3.org/2000/svg">
<path d="M4.67355 4.05525L12.6466 1.87894L12.2244 1.02549C11.9481 0.470744 11.2743 0.241659 10.7196 0.517909L3.58203 4.05525H4.67355Z" fill="#8B93B3"/>
<path d="M15.1219 1.94183C15.0231 1.94183 14.9242 1.9553 14.8254 1.98225L12.9523 2.49432L7.23193 4.05525H13.7249H16.5548L16.2044 2.77057C16.0697 2.26973 15.616 1.94183 15.1219 1.94183Z" fill="#8B93B3"/>
<path d="M17.7249 4.84132H17.4688H17.1207H16.7726H14.1157H4.35261H3.07243H1.99439H1.7945H1.12521C0.770354 4.84132 0.453678 5.00528 0.247052 5.26356C0.152723 5.38259 0.0808535 5.5196 0.0404267 5.67007C0.0157215 5.7644 0 5.86322 0 5.96429V6.09905V7.37923V18.4764C0 19.0963 0.503088 19.5993 1.12296 19.5993H17.7226C18.3425 19.5993 18.8456 19.0963 18.8456 18.4764V15.3433H12.1819C11.1286 15.3433 10.2729 14.4876 10.2729 13.4343V12.4056V12.0575V11.7094V10.9368C10.2729 10.4202 10.4795 9.95084 10.8141 9.60721C11.1106 9.30174 11.5081 9.09512 11.9528 9.04346C12.027 9.0345 12.1033 9.02998 12.1797 9.02998H17.9113H18.2594H18.6075H18.8456V5.96429C18.8478 5.34441 18.3448 4.84132 17.7249 4.84132Z" fill="#8B93B3"/>
<path d="M19.6341 10.1035C19.5218 10.0002 19.3892 9.92162 19.241 9.86996C19.1265 9.8318 19.0052 9.80934 18.8772 9.80934H18.848H18.8255H18.4774H17.2219H12.182C11.5621 9.80934 11.0591 10.3124 11.0591 10.9323V11.4915V11.8396V12.1878V13.432C11.0591 14.0519 11.5621 14.555 12.182 14.555H18.848H18.8772C19.0052 14.555 19.1265 14.5325 19.241 14.4943C19.3892 14.4449 19.5218 14.3641 19.6341 14.2608C19.8586 14.0564 20.0001 13.7599 20.0001 13.432V10.9323C20.0001 10.6044 19.8586 10.3079 19.6341 10.1035ZM14.5268 12.4056C14.5268 12.7156 14.2753 12.9671 13.9653 12.9671H13.5925C13.2826 12.9671 13.031 12.7156 13.031 12.4056V12.0328C13.031 11.8531 13.1141 11.6936 13.2466 11.5926C13.3432 11.5184 13.4623 11.4713 13.5925 11.4713H13.6868H13.9653C14.2753 11.4713 14.5268 11.7228 14.5268 12.0328V12.4056Z" fill="#8B93B3"/>
</svg>
