<svg width="23" height="23" viewBox="0 0 23 23" fill="none" xmlns="http://www.w3.org/2000/svg">
<path d="M11.4997 11.2485C14.0569 11.2485 16.1301 8.73047 16.1301 5.62429C16.1301 2.51804 15.4495 0 11.4997 0C7.54994 0 6.86914 2.51804 6.86914 5.62429C6.86914 8.73047 8.94236 11.2485 11.4997 11.2485Z" fill="#8B93B3"/>
<path d="M2.75384 19.8361C2.75305 19.6467 2.75226 19.7827 2.75384 19.8361V19.8361Z" fill="#8B93B3"/>
<path d="M20.2456 19.984C20.2481 19.9321 20.2465 19.6243 20.2456 19.984V19.984Z" fill="#8B93B3"/>
<path d="M20.2357 19.6089C20.1499 14.1979 19.4432 12.656 14.0354 11.6801C14.0354 11.6801 13.2742 12.6501 11.4999 12.6501C9.7256 12.6501 8.96423 11.6801 8.96423 11.6801C3.61542 12.6454 2.86575 14.1644 2.76718 19.4332C2.7591 19.8634 2.75535 19.886 2.75391 19.8361C2.75423 19.9296 2.75463 20.1027 2.75463 20.4045C2.75463 20.4045 4.0421 23 11.4999 23C18.9575 23 20.2451 20.4045 20.2451 20.4045C20.2451 20.2106 20.2453 20.0758 20.2455 19.984C20.244 20.0149 20.2411 19.9551 20.2357 19.6089Z" fill="#8B93B3"/>
</svg>
